<svg xmlns="http://www.w3.org/2000/svg" width="1400" height="900" viewBox="0 0 1400 900" role="img" aria-labelledby="title desc">
  <title id="title">Confluence2md - End-to-End Flow</title>
  <desc id="desc">Pipeline diagram showing seed input, crawl, conversion, comments and attachments enrichment, link rewriting, and output artifacts.</desc>

  <defs>
    <linearGradient id="bg" x1="0" y1="0" x2="0" y2="1">
      <stop offset="0%" stop-color="#f7fafc" />
      <stop offset="100%" stop-color="#edf2f7" />
    </linearGradient>

    <linearGradient id="header" x1="0" y1="0" x2="1" y2="0">
      <stop offset="0%" stop-color="#0f172a" />
      <stop offset="100%" stop-color="#1e293b" />
    </linearGradient>

    <filter id="shadow" x="-20%" y="-20%" width="140%" height="140%">
      <feDropShadow dx="0" dy="2" stdDeviation="3" flood-opacity="0.15" />
    </filter>

    <marker id="arrow" markerWidth="10" markerHeight="10" refX="9" refY="5" orient="auto">
      <path d="M0,0 L10,5 L0,10 Z" fill="#334155" />
    </marker>

    <style>
      .title { font: 700 36px 'Segoe UI', Arial, sans-serif; fill: #ffffff; }
      .subtitle { font: 500 16px 'Segoe UI', Arial, sans-serif; fill: #cbd5e1; }
      .lane-title { font: 700 15px 'Segoe UI', Arial, sans-serif; fill: #0f172a; }
      .box-title { font: 700 16px 'Segoe UI', Arial, sans-serif; fill: #0f172a; }
      .box-text { font: 400 14px 'Segoe UI', Arial, sans-serif; fill: #1e293b; }
      .small { font: 400 13px 'Segoe UI', Arial, sans-serif; fill: #334155; }
      .muted { font: 400 12px 'Segoe UI', Arial, sans-serif; fill: #475569; }
      .io { fill: #ffffff; stroke: #94a3b8; stroke-width: 1.5; rx: 12; }
      .process { fill: #f8fafc; stroke: #64748b; stroke-width: 1.5; rx: 12; }
      .important { fill: #eff6ff; stroke: #3b82f6; stroke-width: 1.8; rx: 12; }
      .artifact { fill: #ecfeff; stroke: #0891b2; stroke-width: 1.6; rx: 12; }
      .line { stroke: #334155; stroke-width: 2; fill: none; marker-end: url(#arrow); }
      .line-dashed { stroke: #334155; stroke-width: 1.8; stroke-dasharray: 6 5; fill: none; marker-end: url(#arrow); }
      .lane { fill: none; stroke: #cbd5e1; stroke-width: 1; }
    </style>
  </defs>

  <rect x="0" y="0" width="1400" height="900" fill="url(#bg)" />

  <rect x="0" y="0" width="1400" height="110" fill="url(#header)" />
  <text x="40" y="58" class="title">Confluence2md - How It Works</text>
  <text x="40" y="86" class="subtitle">Seed-driven crawl, conversion, comments + attachments enrichment, rewrite pass, and local output generation</text>

  <!-- Lane guides -->
  <line x1="30" y1="145" x2="1370" y2="145" class="lane" />
  <line x1="30" y1="430" x2="1370" y2="430" class="lane" />
  <text x="40" y="138" class="lane-title">Input + Crawl + Enrichment</text>
  <text x="40" y="423" class="lane-title">Write + Rewrite + Outputs</text>

  <!-- Top row -->
  <rect x="50" y="180" width="250" height="130" class="io" filter="url(#shadow)" />
  <text x="70" y="212" class="box-title">1) Config + Seeds</text>
  <text x="70" y="238" class="box-text">- config.yaml</text>
  <text x="70" y="258" class="box-text">- Seed page URLs / IDs</text>
  <text x="70" y="278" class="muted">Includes depth, concurrency, rate limit</text>

  <rect x="360" y="180" width="280" height="130" class="important" filter="url(#shadow)" />
  <text x="380" y="212" class="box-title">2) Crawl Session (BFS)</text>
  <text x="380" y="238" class="box-text">- Fetch page storage XML</text>
  <text x="380" y="258" class="box-text">- Track visited + depth</text>
  <text x="380" y="278" class="muted">Rate-limited, concurrent workers</text>

  <rect x="700" y="180" width="280" height="130" class="process" filter="url(#shadow)" />
  <text x="720" y="212" class="box-title">3) Convert to Markdown</text>
  <text x="720" y="238" class="box-text">- Parse Confluence storage format</text>
  <text x="720" y="258" class="box-text">- Render Markdown + normalize</text>
  <text x="720" y="278" class="muted">Headings, tables, macros, links</text>

  <rect x="1040" y="180" width="300" height="130" class="process" filter="url(#shadow)" />
  <text x="1060" y="212" class="box-title">4) Comments + Attachments</text>
  <text x="1060" y="238" class="box-text">- Fetch comments + resolve authors</text>
  <text x="1060" y="258" class="box-text">- Fetch attachment metadata (v2)</text>
  <text x="1060" y="278" class="muted">Best-effort enrichments, non-fatal</text>

  <!-- Bottom row -->
  <rect x="120" y="500" width="300" height="140" class="important" filter="url(#shadow)" />
  <text x="140" y="534" class="box-title">5) Write Page Files</text>
  <text x="140" y="560" class="box-text">- {title-slug}_{page-id}.md</text>
  <text x="140" y="580" class="box-text">- Download attachments to attachments/</text>
  <text x="140" y="600" class="muted">Rewrite attachment:// links to local paths</text>

  <rect x="500" y="500" width="300" height="140" class="important" filter="url(#shadow)" />
  <text x="520" y="534" class="box-title">6) Build Link Graph</text>
  <text x="520" y="560" class="box-text">- Extract outgoing page IDs</text>
  <text x="520" y="580" class="box-text">- Compute incoming reverse edges</text>
  <text x="520" y="600" class="muted">Graph persisted to metadata.json</text>

  <rect x="880" y="500" width="320" height="140" class="important" filter="url(#shadow)" />
  <text x="900" y="534" class="box-title">7) Rewrite Pass</text>
  <text x="900" y="560" class="box-text">- Re-scan all markdown files</text>
  <text x="900" y="580" class="box-text">- Rewrite links to crawled pages only</text>
  <text x="900" y="600" class="muted">Out-of-scope / external links unchanged</text>

  <!-- Output artifacts -->
  <rect x="200" y="710" width="1000" height="130" class="artifact" filter="url(#shadow)" />
  <text x="220" y="746" class="box-title">Output Artifacts</text>
  <text x="220" y="772" class="box-text">- Markdown files for crawled pages</text>
  <text x="520" y="772" class="box-text">- metadata.json (page metadata + bidirectional graph)</text>
  <text x="1020" y="772" class="box-text">- attachments/ (if enabled)</text>
  <text x="220" y="800" class="small">Result: local, navigable, versionable, AI-ingestible documentation corpus.</text>

  <!-- Connectors -->
  <path d="M300 245 L360 245" class="line" />
  <path d="M640 245 L700 245" class="line" />
  <path d="M980 245 L1040 245" class="line" />

  <path d="M1190 310 L1190 430 L270 430 L270 500" class="line" />
  <path d="M420 570 L500 570" class="line" />
  <path d="M800 570 L880 570" class="line" />

  <path d="M280 640 L280 710" class="line" />
  <path d="M650 640 L650 710" class="line" />
  <path d="M1040 640 L1040 710" class="line" />

  <!-- Side notes -->
  <rect x="50" y="350" width="340" height="62" class="io" />
  <text x="68" y="376" class="small">Scope control:</text>
  <text x="68" y="396" class="muted">Seeds + max_depth determine what is crawled.</text>

  <rect x="1010" y="350" width="330" height="62" class="io" />
  <text x="1028" y="376" class="small">Comment/attachment failures are non-fatal:</text>
  <text x="1028" y="396" class="muted">page export continues, warnings in run summary.</text>
</svg>
